<?xml version="1.0" encoding="UTF-8" standalone="no"?>
<svg
   version="1.1"
   x="0px"
   y="0px"
   viewBox="0 0 33.5 33.499001"
   enable-background="new 0 0 100 100"
   xml:space="preserve"
   id="svg288"
   sodipodi:docname="logo.svg"
   width="33.5"
   height="33.499001"
   inkscape:version="1.2.2 (b0a8486541, 2022-12-01)"
   xmlns:inkscape="http://www.inkscape.org/namespaces/inkscape"
   xmlns:sodipodi="http://sodipodi.sourceforge.net/DTD/sodipodi-0.dtd"
   xmlns="http://www.w3.org/2000/svg"
   xmlns:svg="http://www.w3.org/2000/svg"><defs
     id="defs292" /><sodipodi:namedview
     id="namedview290"
     pagecolor="#505050"
     bordercolor="#eeeeee"
     borderopacity="1"
     inkscape:showpageshadow="0"
     inkscape:pageopacity="0"
     inkscape:pagecheckerboard="0"
     inkscape:deskcolor="#505050"
     showgrid="false"
     inkscape:zoom="6.68"
     inkscape:cx="16.766467"
     inkscape:cy="29.266467"
     inkscape:window-width="1916"
     inkscape:window-height="1011"
     inkscape:window-x="0"
     inkscape:window-y="67"
     inkscape:window-maximized="1"
     inkscape:current-layer="g280" /><g
     id="g282"
     transform="translate(-33.25,-33.25)"><g
       id="g280"><path
         d="M 59.698,40.302 C 58.368,36.215 54.525,33.25 50,33.25 c -4.526,0 -8.367,2.965 -9.698,7.052 -4.087,1.33 -7.052,5.172 -7.052,9.698 0,4.525 2.965,8.367 7.053,9.698 1.331,4.087 5.172,7.051 9.697,7.051 4.525,0 8.366,-2.964 9.697,-7.051 4.088,-1.33 7.053,-5.173 7.053,-9.698 0,-4.525 -2.965,-8.367 -7.052,-9.698 z M 50,34.75 c 3.534,0 6.577,2.122 7.938,5.156 -0.455,-0.063 -0.916,-0.106 -1.389,-0.106 -2.492,0 -4.775,0.901 -6.55,2.392 -1.774,-1.49 -4.058,-2.392 -6.55,-2.392 -0.472,0 -0.933,0.043 -1.388,0.106 C 43.423,36.872 46.466,34.75 50,34.75 Z m 8.7,8.7 c 0,2.074 -0.732,3.978 -1.947,5.475 -1.037,-0.92 -2.258,-1.635 -3.606,-2.074 -0.438,-1.347 -1.151,-2.567 -2.071,-3.604 1.495,-1.216 3.399,-1.948 5.475,-1.948 0.663,0 1.308,0.081 1.929,0.223 0.139,0.621 0.22,1.265 0.22,1.928 z m -0.223,15.029 c -0.621,0.142 -1.264,0.224 -1.927,0.224 -2.073,0 -3.979,-0.732 -5.475,-1.948 0.92,-1.037 1.635,-2.257 2.073,-3.604 1.348,-0.439 2.566,-1.154 3.604,-2.074 1.216,1.496 1.947,3.4 1.947,5.475 0.001,0.66 -0.08,1.303 -0.222,1.927 z M 41.3,56.549 c 0,-2.074 0.732,-3.979 1.947,-5.475 1.037,0.92 2.258,1.635 3.605,2.074 0.439,1.347 1.154,2.566 2.073,3.604 -1.497,1.216 -3.401,1.948 -5.475,1.948 -0.663,0 -1.306,-0.081 -1.927,-0.224 C 41.381,57.855 41.3,57.212 41.3,56.549 Z m 0.222,-15.027 c 0.621,-0.141 1.265,-0.223 1.928,-0.223 2.074,0 3.979,0.732 5.475,1.948 -0.919,1.037 -1.634,2.257 -2.073,3.604 -1.348,0.439 -2.568,1.154 -3.606,2.074 -1.216,-1.497 -1.947,-3.401 -1.947,-5.475 10e-4,-0.663 0.082,-1.307 0.223,-1.928 z m 9.865,4.932 C 50.932,46.392 50.471,46.348 50,46.348 c -0.471,0 -0.932,0.043 -1.387,0.106 0.355,-0.791 0.824,-1.517 1.387,-2.162 0.563,0.645 1.032,1.372 1.387,2.162 z M 52.15,50 c 0,0.663 -0.082,1.307 -0.225,1.928 -0.619,0.141 -1.264,0.223 -1.927,0.223 -0.663,0 -1.307,-0.082 -1.928,-0.224 -0.141,-0.62 -0.222,-1.264 -0.222,-1.927 0,-0.664 0.081,-1.307 0.223,-1.929 0.621,-0.141 1.264,-0.223 1.927,-0.223 0.663,0 1.308,0.081 1.927,0.223 0.143,0.622 0.225,1.265 0.225,1.929 z m 1.394,-1.389 c 0.792,0.355 1.519,0.825 2.164,1.388 -0.646,0.563 -1.372,1.033 -2.164,1.388 0.062,-0.455 0.106,-0.916 0.106,-1.388 0,-0.471 -0.043,-0.932 -0.106,-1.388 z m -7.089,2.778 C 45.664,51.035 44.937,50.563 44.291,50 c 0.646,-0.563 1.373,-1.033 2.164,-1.388 -0.062,0.455 -0.105,0.916 -0.105,1.388 0,0.472 0.043,0.934 0.105,1.389 z m 2.157,2.156 c 0.455,0.063 0.916,0.105 1.388,0.105 0.472,0 0.934,-0.043 1.389,-0.105 -0.354,0.791 -0.824,1.518 -1.389,2.163 -0.563,-0.645 -1.033,-1.372 -1.388,-2.163 z M 34.75,50 c 0,-3.534 2.122,-6.577 5.156,-7.937 -0.063,0.455 -0.106,0.916 -0.106,1.388 0,2.492 0.901,4.776 2.391,6.549 -1.49,1.773 -2.391,4.057 -2.391,6.549 0,0.473 0.044,0.934 0.106,1.389 C 36.872,56.577 34.75,53.534 34.75,50 Z M 50,65.249 c -3.534,0 -6.576,-2.121 -7.937,-5.155 0.455,0.063 0.915,0.106 1.387,0.106 2.492,0 4.776,-0.901 6.55,-2.392 1.773,1.488 4.059,2.392 6.55,2.392 0.472,0 0.933,-0.043 1.388,-0.106 -1.362,3.034 -4.404,5.155 -7.938,5.155 z M 60.094,57.938 C 60.157,57.483 60.2,57.022 60.2,56.549 60.2,54.057 59.299,51.774 57.808,50 59.297,48.226 60.2,45.943 60.2,43.451 c 0,-0.472 -0.043,-0.933 -0.106,-1.388 3.034,1.36 5.156,4.403 5.156,7.937 0,3.534 -2.122,6.577 -5.156,7.938 z"
         id="path274" /></g></g></svg>
